# xmcd CD database file
#
# Track frame offsets:
#	150
#	17937
#	34180
#	53525
#	69100
#	89142
#	105272
#	124767
#	146337
#	161402
#	183077
#	204362
#	226995
#
# Disc length: 3238 seconds
#
# Revision: 3
# Processed by: cddbd v1.5.2PL0 Copyright (c) Steve Scherf et al.
# Submitted via: CDex 1.51
#
DISCID=9e0ca40d
DTITLE=Fenton Robinson - Special Road
DYEAR=1993
DGENRE=Blues
TTITLE0=7-11 Blues
TTITLE1=Love Is Just A Gamble
TTITLE2=Special Road
TTITLE3=Too Many Drivers
TTITLE4=Baby Please Don't Go
TTITLE5=Crying The Blues
TTITLE6=Find A Way
TTITLE7=R.M. Blues
TTITLE8=Slick And Greasy
TTITLE9=Blue Monday
TTITLE10=Money Problem
TTITLE11=Nothing But A Fool
TTITLE12=Little Turch
EXTD=YEAR: 1993
EXTT0=
EXTT1=
EXTT2=
EXTT3=
EXTT4=
EXTT5=
EXTT6=
EXTT7=
EXTT8=
EXTT9=
EXTT10=
EXTT11=
EXTT12=
PLAYORDER=
